<?xml version="1.0" standalone="no"?>
<!DOCTYPE svg PUBLIC "-//W3C//DTD SVG 20010904//EN"
 "http://www.w3.org/TR/2001/REC-SVG-20010904/DTD/svg10.dtd">
<svg version="1.0" xmlns="http://www.w3.org/2000/svg"
 width="512.000000pt" height="512.000000pt" viewBox="0 0 512.000000 512.000000"
 preserveAspectRatio="xMidYMid meet">
<metadata>
Created by potrace 1.11, written by Peter Selinger 2001-2013
</metadata>
<g transform="translate(0.000000,512.000000) scale(0.100000,-0.100000)"
fill="#000000" stroke="none">
<path d="M1140 4576 c-206 -44 -379 -136 -532 -284 -210 -203 -314 -457 -311
-757 0 -115 5 -157 26 -237 53 -202 136 -348 276 -489 82 -81 212 -175 294
-212 l37 -17 0 113 0 112 -56 24 c-129 56 -192 201 -150 346 20 65 83 137 151
170 51 24 143 31 199 15 63 -17 134 -76 170 -140 27 -49 31 -64 31 -135 0 -68
-4 -87 -27 -127 l-27 -48 114 0 114 0 -26 56 c-52 115 -37 218 45 306 70 75
110 93 212 93 69 -1 93 -5 125 -23 97 -53 158 -151 158 -257 0 -56 -10 -89
-51 -167 -2 -5 56 -8 130 -8 l133 1 31 47 c79 120 120 211 155 349 30 115 33
349 6 458 -82 333 -283 584 -580 725 -153 73 -232 91 -422 95 -111 3 -180 0
-225 -9z m316 -195 c159 -71 218 -266 125 -413 -16 -25 -53 -60 -86 -83 -53
-35 -67 -39 -137 -43 -72 -4 -83 -2 -143 27 -105 52 -158 136 -158 251 0 208
209 345 399 261z m-552 -412 c153 -57 221 -250 140 -399 -47 -86 -153 -150
-249 -150 -150 0 -285 135 -285 284 0 69 32 151 78 199 77 82 204 108 316 66z
m1104 -8 c71 -36 104 -70 138 -144 69 -152 -19 -335 -184 -383 -218 -64 -412
139 -347 361 13 46 28 69 70 111 63 61 115 82 203 83 50 1 74 -5 120 -28z"/>
<path d="M3420 4574 c-14 -2 -59 -9 -100 -15 -313 -46 -622 -274 -763 -564
-72 -146 -107 -302 -107 -470 0 -184 44 -346 142 -522 l51 -93 133 0 133 0
-19 43 c-30 66 -27 178 6 245 28 56 88 112 148 137 58 24 167 21 223 -6 61
-29 120 -89 145 -147 28 -63 28 -161 0 -225 l-21 -47 104 0 104 0 -22 38 c-32
54 -32 179 1 242 56 107 142 161 257 161 85 0 136 -21 198 -80 65 -61 82 -103
82 -201 0 -98 -18 -141 -82 -201 -86 -82 -184 -102 -310 -64 l-23 7 0 -156 c0
-86 1 -156 3 -156 27 0 176 53 252 90 297 143 509 421 571 747 24 131 15 347
-20 468 -129 442 -511 748 -961 769 -55 2 -111 3 -125 0z m158 -199 c153 -46
239 -216 186 -367 -25 -70 -101 -147 -169 -171 -109 -38 -217 -13 -300 68
-116 113 -114 289 5 404 75 72 175 96 278 66z m-506 -427 c96 -41 162 -146
161 -258 -1 -213 -219 -345 -412 -249 -102 51 -155 139 -154 259 0 98 51 184
142 238 79 46 170 50 263 10z m1083 3 c100 -45 156 -125 163 -236 6 -94 -15
-159 -69 -215 -142 -146 -391 -108 -469 72 -105 240 137 485 375 379z"/>
<path d="M1022 1818 l3 -1003 1290 0 1290 0 3 254 2 253 28 -7 c15 -3 101 -32
192 -65 247 -87 748 -260 754 -260 3 0 6 349 6 776 0 714 -1 776 -16 770 -34
-13 -957 -336 -961 -336 -1 0 -3 140 -3 310 l0 310 -1295 0 -1295 0 2 -1002z
m2251 -10 l2 -668 -962 0 -963 0 0 663 c0 365 3 667 7 670 3 4 436 6 960 5
l954 -3 2 -667z"/>
<path d="M1430 1810 l0 -590 883 2 882 3 0 585 0 585 -882 3 -883 2 0 -590z"/>
<path d="M4710 2583 c-63 -24 -103 -41 -88 -38 14 3 33 8 42 11 15 6 16 -66
16 -798 l0 -804 68 -22 c38 -12 74 -22 80 -22 9 0 12 205 12 854 0 470 -3 857
-7 859 -5 2 -60 -16 -123 -40z"/>
</g>
</svg>
